<svg width="80" height="80" viewBox="0 0 80 80" fill="none" xmlns="http://www.w3.org/2000/svg">
<rect width="80" height="80" rx="2" fill="#004012"/>
<path fill-rule="evenodd" clip-rule="evenodd" d="M45.7943 20C46.4872 20 47.0426 20.5634 47.1089 21.2532C47.6998 27.4057 52.5965 32.302 58.7494 32.8929C59.4392 32.9591 60.0027 33.5145 60.0027 34.2074V45.7926C60.0027 46.4855 59.4392 47.0409 58.7494 47.1071C52.5965 47.698 47.6998 52.5943 47.1089 58.7468C47.0426 59.4366 46.4872 60 45.7943 60H34.2085C33.5155 60 32.9601 59.4366 32.8938 58.7468C32.3029 52.5943 27.4062 47.698 21.2533 47.1071C20.5635 47.0409 20 46.4855 20 45.7926V34.2074C20 33.5145 20.5635 32.9591 21.2533 32.8929C27.4062 32.302 32.3029 27.4057 32.8938 21.2532C32.9601 20.5634 33.5155 20 34.2084 20H45.7943ZM28.0317 39.966C28.0317 46.6214 33.4212 52.0166 40.0695 52.0166C46.7178 52.0166 52.1073 46.6214 52.1073 39.966C52.1073 33.3107 46.7178 27.9155 40.0695 27.9155C33.4212 27.9155 28.0317 33.3107 28.0317 39.966Z" fill="#ADFF00"/>
<circle cx="61" cy="19" r="5" fill="#ADFF00"/>
</svg>
